<svg width="26" height="26" viewBox="0 0 26 26" fill="none" xmlns="http://www.w3.org/2000/svg">
<g clip-path="url(#clip0_73_719)">
<g filter="url(#filter0_d_73_719)">
<path d="M17.3333 2.16667H8.66658C6.28325 2.16667 4.33325 4.11667 4.33325 6.5V19.5C4.33325 21.8833 6.28325 23.8333 8.66658 23.8333H12.9999C13.1083 23.8333 13.3249 23.8333 13.4333 23.725C13.5416 23.6167 13.6499 23.6167 13.7583 23.5083L21.3416 15.925C21.4499 15.8167 21.4499 15.7083 21.5583 15.6V15.4917C21.5583 15.3833 21.5583 15.275 21.6666 15.1667C21.6666 15.1667 21.6666 15.1667 21.6666 15.0583V6.5C21.6666 4.11667 19.7166 2.16667 17.3333 2.16667ZM14.0833 20.15V18.4167C14.0833 17.225 15.0583 16.25 16.2499 16.25H17.9833L14.0833 20.15ZM19.4999 14.0833H16.2499C13.8666 14.0833 11.9166 16.0333 11.9166 18.4167V21.6667H8.66658C7.47492 21.6667 6.49992 20.6917 6.49992 19.5V6.5C6.49992 5.30834 7.47492 4.33334 8.66658 4.33334H17.3333C18.5249 4.33334 19.4999 5.30834 19.4999 6.5V14.0833Z" fill="#BEBABA"/>
<path d="M9.74984 8.66667H12.9998C13.6498 8.66667 14.0832 8.23333 14.0832 7.58333C14.0832 6.93333 13.6498 6.5 12.9998 6.5H9.74984C9.09984 6.5 8.6665 6.93333 8.6665 7.58333C8.6665 8.23333 9.09984 8.66667 9.74984 8.66667Z" fill="#BEBABA"/>
<path d="M16.2498 10.8333H9.74984C9.09984 10.8333 8.6665 11.2667 8.6665 11.9167C8.6665 12.5667 9.09984 13 9.74984 13H16.2498C16.8998 13 17.3332 12.5667 17.3332 11.9167C17.3332 11.2667 16.8998 10.8333 16.2498 10.8333Z" fill="#BEBABA"/>
</g>
</g>
<defs>
<filter id="filter0_d_73_719" x="0.333252" y="-0.833328" width="25.3333" height="29.6667" filterUnits="userSpaceOnUse" color-interpolation-filters="sRGB">
<feFlood flood-opacity="0" result="BackgroundImageFix"/>
<feColorMatrix in="SourceAlpha" type="matrix" values="0 0 0 0 0 0 0 0 0 0 0 0 0 0 0 0 0 0 127 0" result="hardAlpha"/>
<feOffset dy="1"/>
<feGaussianBlur stdDeviation="2"/>
<feComposite in2="hardAlpha" operator="out"/>
<feColorMatrix type="matrix" values="0 0 0 0 0.592157 0 0 0 0 0.278431 0 0 0 0 1 0 0 0 1 0"/>
<feBlend mode="normal" in2="BackgroundImageFix" result="effect1_dropShadow_73_719"/>
<feBlend mode="normal" in="SourceGraphic" in2="effect1_dropShadow_73_719" result="shape"/>
</filter>
<clipPath id="clip0_73_719">
<rect width="26" height="26" fill="white"/>
</clipPath>
</defs>
</svg>
