<svg width="31" height="32" viewBox="0 0 31 32" fill="none" xmlns="http://www.w3.org/2000/svg">
<g filter="url(#filter0_d_7_1438)">
<path d="M19.5481 25.6133C19.5524 24.9315 19.5567 22.565 19.5567 21.628C19.5567 20.274 19.0942 19.388 18.5755 18.9395C21.7957 18.5796 25.1764 17.3531 25.1764 11.7739C25.1764 10.1887 24.618 8.8919 23.6905 7.87724C23.839 7.50981 24.335 6.0328 23.5464 4.03357C23.5464 4.03357 22.3349 3.64336 19.5739 5.52372C18.4185 5.20054 17.1832 5.04063 15.9546 5.03421C14.7258 5.04063 13.4906 5.20069 12.335 5.52372C9.57409 3.64336 8.36272 4.03357 8.36272 4.03357C7.57412 6.0328 8.07006 7.50981 8.21858 7.87724C7.2911 8.8919 6.73266 10.1887 6.73266 11.7739C6.73266 17.3531 10.1133 18.5796 13.3335 18.9395C12.8149 19.388 12.3523 20.274 12.3523 21.628C12.3523 22.565 12.3567 24.9315 12.3609 25.6133M5.85645 19.7719C7.3079 19.8745 8.14483 21.1935 8.14483 21.1935C9.43491 23.4132 11.5297 22.7712 12.3529 22.4005" stroke="#BEBABA" stroke-width="2" stroke-linecap="round" stroke-linejoin="round"/>
</g>
<defs>
<filter id="filter0_d_7_1438" x="0.856445" y="0" width="29.3201" height="31.6133" filterUnits="userSpaceOnUse" color-interpolation-filters="sRGB">
<feFlood flood-opacity="0" result="BackgroundImageFix"/>
<feColorMatrix in="SourceAlpha" type="matrix" values="0 0 0 0 0 0 0 0 0 0 0 0 0 0 0 0 0 0 127 0" result="hardAlpha"/>
<feOffset dy="1"/>
<feGaussianBlur stdDeviation="2"/>
<feComposite in2="hardAlpha" operator="out"/>
<feColorMatrix type="matrix" values="0 0 0 0 0.592157 0 0 0 0 0.278431 0 0 0 0 1 0 0 0 1 0"/>
<feBlend mode="normal" in2="BackgroundImageFix" result="effect1_dropShadow_7_1438"/>
<feBlend mode="normal" in="SourceGraphic" in2="effect1_dropShadow_7_1438" result="shape"/>
</filter>
</defs>
</svg>
