<svg width="23" height="25" viewBox="0 0 23 25" fill="none" xmlns="http://www.w3.org/2000/svg">
<path d="M15.5102 23.4533C15.5146 22.7715 15.5188 20.405 15.5188 19.468C15.5188 18.114 15.0563 17.228 14.5376 16.7795C17.7579 16.4196 21.1386 15.1931 21.1386 9.61392C21.1386 8.0287 20.5802 6.7319 19.6527 5.71724C19.8012 5.34981 20.2971 3.8728 19.5085 1.87356C19.5085 1.87356 18.297 1.48336 15.5361 3.36372C14.3806 3.04054 13.1453 2.88063 11.9167 2.8742C10.688 2.88063 9.45279 3.04069 8.29721 3.36372C5.53625 1.48336 4.32488 1.87356 4.32488 1.87356C3.53628 3.8728 4.03222 5.34981 4.18074 5.71724C3.25326 6.7319 2.69482 8.0287 2.69482 9.61392C2.69482 15.1931 6.07541 16.4196 9.29565 16.7795C8.77708 17.228 8.31444 18.114 8.31444 19.468C8.31444 20.405 8.31882 22.7715 8.32305 23.4533M1.8186 17.6119C3.27006 17.7145 4.10699 19.0335 4.10699 19.0335C5.39707 21.2531 7.49182 20.6112 8.31502 20.2405" stroke="#BEBABA" strokeWidth="2" strokeLinecap="round" strokeLinejoin="round"/>
</svg>
