<svg width="31" height="29" viewBox="0 0 31 29" fill="none" xmlns="http://www.w3.org/2000/svg">
<g filter="url(#filter0_d_7_1203)">
<path fill-rule="evenodd" clip-rule="evenodd" d="M9.88396 23.9876V9.82662H5.17764V23.9876H9.88396V23.9876ZM7.53129 7.89388C9.17197 7.89388 10.194 6.80557 10.194 5.44668C10.163 4.05759 9.17197 3 7.56206 3C5.95189 3.00004 4.89941 4.05763 4.89941 5.44673C4.89941 6.80561 5.92087 7.89393 7.50031 7.89393L7.53129 7.89388ZM12.4887 23.9876C12.4887 23.9876 12.5505 11.1553 12.4887 9.82666H17.1958V11.8803H17.1645C17.7835 10.9139 18.8985 9.49412 21.4374 9.49412C24.5348 9.49412 26.8564 11.5181 26.8564 15.8678V23.9877H22.1501V16.4119C22.1501 14.5084 21.4692 13.2094 19.7655 13.2094C18.4655 13.2094 17.6908 14.0851 17.3506 14.9316C17.2261 15.2329 17.1958 15.6561 17.1958 16.0793V23.9876H12.4887Z" fill="#BEBABA"/>
</g>
<defs>
<filter id="filter0_d_7_1203" x="0.899414" y="0" width="29.957" height="28.9877" filterUnits="userSpaceOnUse" color-interpolation-filters="sRGB">
<feFlood flood-opacity="0" result="BackgroundImageFix"/>
<feColorMatrix in="SourceAlpha" type="matrix" values="0 0 0 0 0 0 0 0 0 0 0 0 0 0 0 0 0 0 127 0" result="hardAlpha"/>
<feOffset dy="1"/>
<feGaussianBlur stdDeviation="2"/>
<feComposite in2="hardAlpha" operator="out"/>
<feColorMatrix type="matrix" values="0 0 0 0 0.592157 0 0 0 0 0.278431 0 0 0 0 1 0 0 0 1 0"/>
<feBlend mode="normal" in2="BackgroundImageFix" result="effect1_dropShadow_7_1203"/>
<feBlend mode="normal" in="SourceGraphic" in2="effect1_dropShadow_7_1203" result="shape"/>
</filter>
</defs>
</svg>
