<svg width="29" height="29" viewBox="0 0 29 29" fill="none" xmlns="http://www.w3.org/2000/svg">
<g filter="url(#filter0_d_7_1178)">
<path fill-rule="evenodd" clip-rule="evenodd" d="M21.9051 6.052C19.9398 4.085 17.3271 3.00088 14.5437 3C8.80805 3 4.13993 7.66725 4.1373 13.4055C4.13643 15.2395 4.61593 17.0297 5.5268 18.6082L4.0498 24L9.5658 22.5527C11.0857 23.3822 12.7972 23.8189 14.5384 23.8197H14.5428C20.2776 23.8197 24.9466 19.1516 24.9492 13.4134C24.9509 10.6335 23.8694 8.01813 21.9051 6.052ZM14.5437 22.0619H14.5402C12.9879 22.0619 11.4663 21.6445 10.1381 20.8561L9.82218 20.6689L6.5488 21.5273L7.42293 18.3352L7.2173 18.008C6.35105 16.6308 5.8943 15.0391 5.89518 13.4055C5.89693 8.63675 9.77755 4.757 14.5481 4.757C16.8581 4.757 19.0298 5.65825 20.6626 7.29275C22.2953 8.92812 23.1939 11.1007 23.1931 13.4116C23.1904 18.1821 19.3107 22.0619 14.5437 22.0619ZM19.2879 15.5842C19.0281 15.4539 17.7497 14.8247 17.5108 14.7381C17.2728 14.6515 17.0996 14.6077 16.9254 14.8676C16.7513 15.1275 16.2543 15.7137 16.1021 15.8879C15.9507 16.0611 15.7984 16.083 15.5386 15.9526C15.2787 15.8223 14.4404 15.5484 13.4473 14.662C12.6747 13.9725 12.1523 13.1211 12.0009 12.8604C11.8496 12.5996 11.9852 12.4596 12.1147 12.3301C12.2319 12.2137 12.3746 12.0265 12.5049 11.8743C12.6362 11.7238 12.6791 11.6153 12.7666 11.4411C12.8532 11.2679 12.8103 11.1156 12.7447 10.9853C12.6791 10.8558 12.1593 9.57562 11.9432 9.055C11.7323 8.5475 11.5179 8.61662 11.3578 8.60875C11.2064 8.60087 11.0332 8.6 10.8591 8.6C10.6858 8.6 10.4041 8.66475 10.1661 8.9255C9.92805 9.18625 9.25605 9.81538 9.25605 11.0946C9.25605 12.3748 10.1879 13.6111 10.3174 13.7844C10.4469 13.9576 12.1506 16.5844 14.7589 17.7105C15.3793 17.9783 15.8641 18.1384 16.2412 18.2582C16.8642 18.456 17.4312 18.428 17.8792 18.3615C18.3788 18.2871 19.4174 17.7324 19.6344 17.1251C19.8514 16.5179 19.8514 15.9964 19.7858 15.8888C19.7211 15.7794 19.5478 15.7146 19.2879 15.5842Z" fill="#BEBABA"/>
</g>
<defs>
<filter id="filter0_d_7_1178" x="0.0498047" y="0" width="28.8994" height="29" filterUnits="userSpaceOnUse" color-interpolation-filters="sRGB">
<feFlood flood-opacity="0" result="BackgroundImageFix"/>
<feColorMatrix in="SourceAlpha" type="matrix" values="0 0 0 0 0 0 0 0 0 0 0 0 0 0 0 0 0 0 127 0" result="hardAlpha"/>
<feOffset dy="1"/>
<feGaussianBlur stdDeviation="2"/>
<feComposite in2="hardAlpha" operator="out"/>
<feColorMatrix type="matrix" values="0 0 0 0 0.592157 0 0 0 0 0.278431 0 0 0 0 1 0 0 0 1 0"/>
<feBlend mode="normal" in2="BackgroundImageFix" result="effect1_dropShadow_7_1178"/>
<feBlend mode="normal" in="SourceGraphic" in2="effect1_dropShadow_7_1178" result="shape"/>
</filter>
</defs>
</svg>
