<svg width="21" height="21" viewBox="0 0 21 21" fill="none" xmlns="http://www.w3.org/2000/svg">
<path d="M10.209 0C7.50159 0 4.90506 1.07551 2.99063 2.98996C1.0762 4.90439 0.000682774 7.50092 0.000682774 10.2083C-0.0149622 11.5533 0.238403 12.8877 0.74588 14.1333C1.25336 15.3789 2.00471 16.5105 2.95578 17.4616C3.90683 18.4127 5.03843 19.164 6.28402 19.6715C7.52961 20.1789 8.86407 20.4323 10.209 20.4167C10.4411 20.4167 10.6637 20.3245 10.8277 20.1603C10.9918 19.9963 11.084 19.7737 11.084 19.5417C11.084 19.3096 10.9918 19.087 10.8277 18.923C10.6637 18.7588 10.4411 18.6667 10.209 18.6667C9.09472 18.6791 7.9893 18.4689 6.95741 18.0483C5.92555 17.6276 4.98814 17.0051 4.2002 16.2171C3.41227 15.4292 2.7897 14.4917 2.36906 13.4599C1.94842 12.428 1.73818 11.3226 1.75068 10.2083C1.75376 7.966 2.6459 5.81637 4.23147 4.2308C5.81705 2.64522 7.96667 1.75309 10.209 1.75C15.8207 1.75 18.6673 4.59667 18.6673 10.2083V11.8183C18.6868 12.0531 18.6574 12.2893 18.5809 12.5121C18.5045 12.7349 18.3827 12.9394 18.2231 13.1128C18.0636 13.2861 17.8698 13.4244 17.6541 13.519C17.4384 13.6136 17.2054 13.6625 16.9698 13.6625C16.7343 13.6625 16.5013 13.6136 16.2856 13.519C16.0699 13.4244 15.8761 13.2861 15.7166 13.1128C15.5571 12.9394 15.4352 12.7349 15.3588 12.5121C15.2823 12.2893 15.2529 12.0531 15.2723 11.8183V5.985C15.2723 5.75294 15.1802 5.53037 15.016 5.36628C14.852 5.20219 14.6294 5.11 14.3973 5.11C14.1653 5.11 13.9427 5.20219 13.7787 5.36628C13.6145 5.53037 13.5223 5.75294 13.5223 5.985V6.38167C12.6041 5.58184 11.4268 5.14241 10.209 5.145C8.86617 5.145 7.57825 5.67846 6.62869 6.62802C5.67913 7.57757 5.14568 8.8655 5.14568 10.2083C5.14568 11.5512 5.67913 12.839 6.62869 13.7886C7.57825 14.7383 8.86617 15.2717 10.209 15.2717C10.9267 15.2692 11.6356 15.1128 12.2878 14.8128C12.9398 14.513 13.52 14.0766 13.989 13.5333C14.3662 14.192 14.9506 14.7076 15.6513 14.9997C16.3519 15.2918 17.1294 15.3441 17.8628 15.1485C18.5963 14.9528 19.2445 14.5201 19.7065 13.9179C20.1685 13.3155 20.4184 12.5774 20.4173 11.8183V10.2083C20.4173 3.62833 16.789 0 10.209 0ZM10.209 13.5217C9.55369 13.5217 8.91307 13.3273 8.36824 12.9633C7.82335 12.5992 7.39867 12.0818 7.14789 11.4763C6.89711 10.8709 6.83149 10.2047 6.95935 9.56188C7.08719 8.91917 7.40275 8.32883 7.86613 7.86546C8.3295 7.40208 8.91984 7.08651 9.56255 6.95866C10.2054 6.83082 10.8716 6.89643 11.4769 7.14721C12.0824 7.398 12.5999 7.82266 12.964 8.36757C13.328 8.9124 13.5223 9.55302 13.5223 10.2083C13.5193 11.0861 13.1692 11.9271 12.5485 12.5478C11.9277 13.1685 11.0868 13.5186 10.209 13.5217Z" fill="#BEBABA"/>
</svg>
