<svg width="21" height="22" viewBox="0 0 21 22" fill="none" xmlns="http://www.w3.org/2000/svg">
<path fill-rule="evenodd" clip-rule="evenodd" d="M17.8552 3.54584C15.89 1.57884 13.2772 0.49471 10.4939 0.493835C4.75825 0.493835 0.090125 5.16109 0.0875 10.8993C0.086625 12.7333 0.566125 14.5236 1.477 16.1021L0 21.4938L5.516 20.0466C7.03587 20.8761 8.74737 21.3127 10.4886 21.3136H10.493C16.2277 21.3136 20.8967 16.6455 20.8994 10.9072C20.9011 8.12734 19.8196 5.51196 17.8552 3.54584ZM10.4939 19.5557H10.4904C8.93812 19.5557 7.4165 19.1383 6.08825 18.35L5.77237 18.1627L2.499 19.0211L3.37312 15.8291L3.1675 15.5018C2.30125 14.1246 1.8445 12.533 1.84537 10.8993C1.84712 6.13059 5.72775 2.25084 10.4982 2.25084C12.8082 2.25084 14.98 3.15209 16.6127 4.78659C18.2455 6.42196 19.1441 8.59459 19.1432 10.9055C19.1406 15.676 15.2609 19.5557 10.4939 19.5557ZM15.2381 13.0781C14.9782 12.9477 13.6999 12.3186 13.461 12.232C13.223 12.1453 13.0497 12.1016 12.8756 12.3615C12.7015 12.6213 12.2045 13.2076 12.0522 13.3817C11.9009 13.555 11.7486 13.5768 11.4887 13.4465C11.2289 13.3161 10.3906 13.0422 9.3975 12.1558C8.62487 11.4663 8.1025 10.615 7.95112 10.3542C7.79975 10.0935 7.93537 9.95346 8.06487 9.82396C8.18212 9.70759 8.32475 9.52034 8.45512 9.36809C8.58637 9.21759 8.62925 9.10909 8.71675 8.93496C8.80337 8.76171 8.7605 8.60946 8.69487 8.47909C8.62925 8.34959 8.1095 7.06946 7.89337 6.54884C7.6825 6.04134 7.46812 6.11046 7.308 6.10259C7.15662 6.09471 6.98337 6.09384 6.80925 6.09384C6.636 6.09384 6.35425 6.15859 6.11625 6.41934C5.87825 6.68009 5.20625 7.30921 5.20625 8.58846C5.20625 9.86859 6.13812 11.105 6.26762 11.2782C6.39712 11.4515 8.10075 14.0782 10.7091 15.2043C11.3295 15.4721 11.8142 15.6322 12.1914 15.7521C12.8144 15.9498 13.3814 15.9218 13.8294 15.8553C14.329 15.781 15.3676 15.2262 15.5846 14.619C15.8016 14.0117 15.8016 13.4902 15.736 13.3826C15.6713 13.2732 15.498 13.2085 15.2381 13.0781Z" fill="#BEBABA"/>
</svg>
